# File created by Blade
# Date/Time:  Wed Jan 21 18:40:08 2015
# Frame Rate: 120.000 fps
#------------------------------------------------------
:FULLY-SPECIFIED
:DEGREES
3455
root -3.176577 17.399546 -13.548917 98.525375 -33.609081 -2.577823
RightUpLeg -181.893389 7.402363 26.014624
RightLeg 96.469890 -0.000000 -0.000000
RightFoot -0.785977 32.469597 21.906024
RightToeBase 29.449150 -0.000000 -0.000000
LeftUpLeg -123.236837 49.078179 -62.832353
LeftLeg -1.241028 -0.000000 0.000000
LeftFoot 3.653291 -1.663194 -30.683498
LeftToeBase 10.578598 -0.000000 -0.000000
Spine -22.834395 -57.762445 20.928510
RightShoulder -31.448939 -7.469367 -54.862189
RightArm -30.308396 -30.726162 68.327556
RightForeArm 2.860228 -0.000000 -16.266964
RightHand 7.864189 0.000000 6.548852
RightHandThumb1 -24.326973 -0.000000 -32.862282
LeftShoulder 8.041410 -22.828411 38.413246
LeftArm 78.813308 45.868136 -19.303988
LeftForeArm 37.803085 -0.000000 4.584549
LeftHand -10.556918 0.000000 13.830356
LeftHandThumb1 -26.253704 0.000000 33.147579
Head -49.035845 -62.121694 37.553443
3456
root -3.175913 17.390582 -13.547167 98.464678 -33.622091 -2.512501
RightUpLeg -181.940333 7.369646 26.037731
RightLeg 96.525786 -0.000000 -0.000000
RightFoot -0.801751 32.513363 21.791884
RightToeBase 29.311544 -0.000000 -0.000000
LeftUpLeg -123.205652 49.055586 -62.834199
LeftLeg -1.220163 -0.000000 0.000000
LeftFoot 3.676246 -1.672903 -30.811012
LeftToeBase 10.627426 -0.000000 -0.000000
Spine -22.871209 -57.800885 21.002060
RightShoulder -31.479662 -7.484989 -54.822740
RightArm -30.282624 -30.775651 68.328245
RightForeArm 2.994392 -0.000000 -16.253277
RightHand 7.786038 -0.000000 6.605360
RightHandThumb1 -24.326973 -0.000000 -32.862282
LeftShoulder 8.008633 -22.793134 38.452208
LeftArm 78.784456 45.847812 -19.364419
LeftForeArm 37.803602 0.000000 4.642512
LeftHand -10.606291 -0.000000 13.934350
LeftHandThumb1 -26.253704 0.000000 33.147579
Head -49.105601 -62.077881 37.670349
3457
root -3.179405 17.381500 -13.549729 98.447903 -33.660008 -2.532630
RightUpLeg -181.938319 7.392379 26.006754
RightLeg 96.544002 -0.000000 -0.000000
RightFoot -0.756707 32.473844 21.902560
RightToeBase 29.530799 -0.000000 -0.000000
LeftUpLeg -123.266032 49.084983 -62.934074
LeftLeg -1.201120 -0.000000 0.000000
LeftFoot 3.724858 -1.702652 -30.892153
LeftToeBase 10.565707 -0.000000 -0.000000
Spine -22.867671 -57.777635 20.981483
RightShoulder -31.496666 -7.506976 -54.800635
RightArm -30.258219 -30.779493 68.319205
RightForeArm 2.981077 0.000000 -16.265985
RightHand 7.899005 -0.000000 6.554727
RightHandThumb1 -24.326973 -0.000000 -32.862282
LeftShoulder 7.982402 -22.785951 38.489305
LeftArm 78.836887 45.895165 -19.301814
LeftForeArm 37.577600 -0.000000 4.670567
LeftHand -10.546241 -0.000000 14.144328
LeftHandThumb1 -26.253704 0.000000 33.147579
Head -49.152412 -62.074719 37.748059
3458
root -3.182733 17.371267 -13.552527 98.418438 -33.693831 -2.545567
RightUpLeg -181.937437 7.397575 25.980750
RightLeg 96.580874 -0.000000 -0.000000
RightFoot -0.843636 32.518164 21.660386
RightToeBase 29.392153 -0.000000 -0.000000
LeftUpLeg -123.316103 49.118134 -63.020364
LeftLeg -1.184570 -0.000000 0.000000
LeftFoot 3.757671 -1.716053 -30.967170
LeftToeBase 10.503665 -0.000000 -0.000000
Spine -22.863036 -57.753228 20.964954
RightShoulder -31.515896 -7.520034 -54.801961
RightArm -30.263285 -30.756305 68.320234
RightForeArm 2.897706 -0.000000 -16.251519
RightHand 8.053633 -0.000000 6.365165
RightHandThumb1 -24.326973 -0.000000 -32.862282
LeftShoulder 7.971372 -22.758838 38.517746
LeftArm 78.921754 45.910351 -19.170154
LeftForeArm 37.430474 -0.000000 4.749417
LeftHand -10.550764 0.000000 14.205537
LeftHandThumb1 -26.253704 0.000000 33.147579
Head -49.215414 -62.111360 37.833953
3459
root -3.186455 17.362627 -13.556006 98.387035 -33.702956 -2.537554
RightUpLeg -181.949938 7.400646 25.980604
RightLeg 96.609426 -0.000000 -0.000000
RightFoot -0.673594 32.486112 22.000572
RightToeBase 29.616328 -0.000000 -0.000000
LeftUpLeg -123.369299 49.132265 -63.074351
LeftLeg -1.138589 -0.000000 0.000000
LeftFoot 3.780721 -1.778093 -31.035779
LeftToeBase 10.534653 -0.000000 -0.000000
Spine -22.876126 -57.756183 20.987723
RightShoulder -31.515595 -7.491775 -54.796131
RightArm -30.291972 -30.736655 68.317569
RightForeArm 2.870124 -0.000000 -16.236847
RightHand 8.123547 -0.000000 6.285586
RightHandThumb1 -24.326973 -0.000000 -32.862282
LeftShoulder 7.950174 -22.730949 38.533930
LeftArm 78.932464 45.914126 -19.134093
LeftForeArm 37.367925 -0.000000 4.810344
LeftHand -10.542327 -0.000000 14.334985
LeftHandThumb1 -26.253704 0.000000 33.147579
Head -49.210083 -62.122935 37.882197
3460
root -3.191788 17.350014 -13.560257 98.334514 -33.716991 -2.537791
RightUpLeg -181.943800 7.396533 25.968475
RightLeg 96.661912 -0.000000 -0.000000
RightFoot -0.728371 32.522428 21.838399
RightToeBase 29.458266 -0.000000 -0.000000
LeftUpLeg -123.309712 49.216343 -63.020776
LeftLeg -1.149815 -0.000000 0.000000
LeftFoot 3.748845 -1.712121 -31.006821
LeftToeBase 10.519784 -0.000000 -0.000000
Spine -22.861252 -57.758753 20.972845
RightShoulder -31.513462 -7.491481 -54.789145
RightArm -30.270544 -30.714241 68.288052
RightForeArm 2.982558 -0.000000 -16.224310
RightHand 7.999130 -0.000000 6.409024
RightHandThumb1 -24.326973 -0.000000 -32.862282
LeftShoulder 7.933218 -22.683152 38.555947
LeftArm 79.004219 45.909732 -19.058752
LeftForeArm 37.244757 -0.000000 4.810866
LeftHand -10.452306 0.000000 14.409056
LeftHandThumb1 -26.253704 0.000000 33.147579
Head -49.174190 -62.127833 37.876658
3461
root -3.197191 17.339688 -13.565735 98.297742 -33.726352 -2.536638
RightUpLeg -181.944901 7.401603 25.955287
RightLeg 96.701545 -0.000000 -0.000000
RightFoot -0.780838 32.520458 21.769671
RightToeBase 29.439927 -0.000000 -0.000000
LeftUpLeg -123.281445 49.277477 -62.984780
LeftLeg -1.140951 -0.000000 0.000000
LeftFoot 3.728312 -1.689098 -30.994378
LeftToeBase 10.541147 -0.000000 -0.000000
Spine -22.857606 -57.753857 20.970793
RightShoulder -31.508063 -7.463484 -54.792136
RightArm -30.295301 -30.667153 68.262773
RightForeArm 3.004211 0.000000 -16.204123
RightHand 7.961856 -0.000000 6.534196
RightHandThumb1 -24.326973 -0.000000 -32.862282
LeftShoulder 7.907638 -22.671481 38.570095
LeftArm 79.043178 45.928675 -19.029039
LeftForeArm 37.173097 0.000000 4.838872
LeftHand -10.424123 -0.000000 14.499774
LeftHandThumb1 -26.253704 0.000000 33.147579
Head -49.130610 -62.095640 37.856366
3462
root -3.203258 17.330534 -13.571497 98.258070 -33.726102 -2.538169
RightUpLeg -181.931430 7.411215 25.952529
RightLeg 96.739587 -0.000000 -0.000000
RightFoot -0.840017 32.522133 21.654612
RightToeBase 29.348073 -0.000000 -0.000000
LeftUpLeg -123.343726 49.305569 -63.038633
LeftLeg -1.107345 -0.000000 0.000000
LeftFoot 3.760229 -1.742484 -30.984108
LeftToeBase 10.536640 -0.000000 -0.000000
Spine -22.840618 -57.750820 20.959055
RightShoulder -31.494145 -7.459028 -54.781132
RightArm -30.293326 -30.596363 68.233755
RightForeArm 2.866698 -0.000000 -16.193167
RightHand 8.015053 -0.000000 6.542686
RightHandThumb1 -24.326973 -0.000000 -32.862282
LeftShoulder 7.885958 -22.643713 38.580987
LeftArm 79.026846 45.930225 -19.089246
LeftForeArm 37.199336 -0.000000 4.840442
LeftHand -10.449462 -0.000000 14.587602
LeftHandThumb1 -26.253704 0.000000 33.147579
Head -49.076565 -62.089800 37.848585
